<svg width="350" height="68" viewBox="0 0 350 68" fill="none" xmlns="http://www.w3.org/2000/svg">
<rect width="350" height="60" fill="#6046FF"/>
<path d="M32 31C32 19.9543 40.9543 11 52 11H65C76.0457 11 85 19.9543 85 31V44C85 55.0457 76.0457 64 65 64H32V31Z" fill="white"/>
<path fill-rule="evenodd" clip-rule="evenodd" d="M51.8813 40.4324C49.1728 40.4324 46.7374 39.3561 44.8222 37.4402C42.907 35.5243 41.8311 32.9257 41.8311 30.2162C41.8311 27.5067 42.907 24.9082 44.8222 22.9923C46.7374 21.0764 49.1728 20 51.8813 20H66.7932C68.7635 20 70.3607 21.5973 70.3607 23.5676C70.3607 25.5379 68.7635 27.1351 66.7932 27.1351L51.8813 27.1351C49.4215 27.3357 48.5098 27.9181 48.153 30.2162C48.5166 32.3381 49.1942 33.1296 51.8813 33.2973L51.8813 40.4324ZM66.7945 40.4324L51.8813 40.4324L51.8813 33.2973L66.7945 33.2973C69.503 33.2973 71.9384 34.3736 73.8536 36.2896C75.7688 38.2055 76.8448 40.804 76.8448 43.5135C76.8448 46.223 75.7688 48.8216 73.8536 50.7375C72.0926 52.4992 69.8916 53.5511 67.4429 53.7089V53.7297H66.7945H63.2283H60.6347H60.3108C59.9525 53.7297 59.6621 53.4393 59.6621 53.0811C59.6621 52.7228 59.9525 52.4324 60.3108 52.4324H60.6347V51.4595H59.1761C58.7283 51.4595 58.3653 51.0964 58.3653 50.6486C58.3653 50.2008 58.7283 49.8378 59.1761 49.8378H60.6347V48.5405H57.7173C57.1799 48.5405 56.7443 48.1049 56.7443 47.5676C56.7443 47.0302 57.1799 46.5946 57.7173 46.5946H60.6347H62.2557L66.7945 46.5946C69.4816 46.4269 70.1592 45.6354 70.5228 43.5135C70.166 41.2154 69.2543 40.633 66.7945 40.4324ZM55.4475 48.8649C55.2684 48.8649 55.1233 49.01 55.1233 49.1891V53.4055C55.1233 53.5846 55.2684 53.7297 55.4475 53.7297C55.6265 53.7297 55.7717 53.5846 55.7717 53.4055V49.1891C55.7717 49.01 55.6265 48.8649 55.4475 48.8649ZM53.8265 46.9188C53.8265 46.7397 53.9716 46.5946 54.1507 46.5946C54.3297 46.5946 54.4749 46.7397 54.4749 46.9188V48.5407C54.4749 48.7197 54.3297 48.8649 54.1507 48.8649C53.9716 48.8649 53.8265 48.7197 53.8265 48.5407V46.9188ZM54.1507 50.4865C53.9716 50.4865 53.8265 50.6316 53.8265 50.8107V51.1353C53.8265 51.3143 53.9716 51.4595 54.1507 51.4595C54.3297 51.4595 54.4749 51.3143 54.4749 51.1353V50.8107C54.4749 50.6316 54.3297 50.4865 54.1507 50.4865ZM52.5297 49.1891C52.5297 49.01 52.6748 48.8649 52.8539 48.8649C53.0329 48.8649 53.1781 49.01 53.1781 49.1891V53.4055C53.1781 53.5846 53.0329 53.7297 52.8539 53.7297C52.6748 53.7297 52.5297 53.5846 52.5297 53.4055V49.1891ZM50.9087 46.5946C50.7296 46.5946 50.5845 46.7397 50.5845 46.9188V53.4055C50.5845 53.5846 50.7296 53.7297 50.9087 53.7297C51.0877 53.7297 51.2329 53.5846 51.2329 53.4055V46.9188C51.2329 46.7397 51.0877 46.5946 50.9087 46.5946ZM47.9909 50.162C47.9909 49.983 48.136 49.8378 48.3151 49.8378C48.4941 49.8378 48.6393 49.983 48.6393 50.162V53.4055C48.6393 53.5846 48.4941 53.7297 48.3151 53.7297C48.136 53.7297 47.9909 53.5846 47.9909 53.4055V50.162ZM47.0183 48.2162C46.8392 48.2162 46.6941 48.3614 46.6941 48.5404V51.7839C46.6941 51.963 46.8392 52.1081 47.0183 52.1081C47.1973 52.1081 47.3425 51.963 47.3425 51.7839V48.5404C47.3425 48.3614 47.1973 48.2162 47.0183 48.2162ZM49.2877 48.5404C49.2877 48.3614 49.4328 48.2162 49.6119 48.2162C49.7909 48.2162 49.9361 48.3614 49.9361 48.5404V51.7839C49.9361 51.963 49.7909 52.1081 49.6119 52.1081C49.4328 52.1081 49.2877 51.963 49.2877 51.7839V48.5404ZM45.7215 46.5946C45.5424 46.5946 45.3973 46.7397 45.3973 46.9188V53.4055C45.3973 53.5846 45.5424 53.7297 45.7215 53.7297C45.9005 53.7297 46.0457 53.5846 46.0457 53.4055V46.9188C46.0457 46.7397 45.9005 46.5946 45.7215 46.5946Z" fill="#6046FF"/>
<rect x="58.0411" y="48.5405" width="4.21461" height="1.2973" rx="0.648648" fill="#FAFAFA"/>
<rect x="57.3927" y="51.4595" width="4.21461" height="0.972975" rx="0.486487" fill="white"/>
<path d="M182.676 41.098C181.49 41.098 180.51 40.8227 179.736 40.272C178.97 39.712 178.555 38.8953 178.49 37.822H181.794C181.84 38.3913 182.092 38.676 182.55 38.676C182.718 38.676 182.858 38.6387 182.97 38.564C183.091 38.48 183.152 38.354 183.152 38.186C183.152 37.9527 183.026 37.766 182.774 37.626C182.522 37.4767 182.13 37.3087 181.598 37.122C180.963 36.898 180.436 36.6787 180.016 36.464C179.605 36.2493 179.25 35.9367 178.952 35.526C178.653 35.1153 178.508 34.588 178.518 33.944C178.518 33.3 178.681 32.754 179.008 32.306C179.344 31.8487 179.796 31.5033 180.366 31.27C180.944 31.0367 181.593 30.92 182.312 30.92C183.525 30.92 184.486 31.2 185.196 31.76C185.914 32.32 186.292 33.1087 186.33 34.126H182.984C182.974 33.846 182.904 33.6453 182.774 33.524C182.643 33.4027 182.484 33.342 182.298 33.342C182.167 33.342 182.06 33.3887 181.976 33.482C181.892 33.566 181.85 33.6873 181.85 33.846C181.85 34.07 181.971 34.2567 182.214 34.406C182.466 34.546 182.862 34.7187 183.404 34.924C184.029 35.1573 184.542 35.3813 184.944 35.596C185.354 35.8107 185.709 36.1093 186.008 36.492C186.306 36.8747 186.456 37.3553 186.456 37.934C186.456 38.5407 186.306 39.0867 186.008 39.572C185.709 40.048 185.275 40.4213 184.706 40.692C184.136 40.9627 183.46 41.098 182.676 41.098ZM194.586 31.088V36.674C194.586 37.1313 194.684 37.4953 194.88 37.766C195.085 38.0273 195.412 38.158 195.86 38.158C196.308 38.158 196.639 38.0273 196.854 37.766C197.068 37.4953 197.176 37.1313 197.176 36.674V31.088H200.27V36.674C200.27 37.6167 200.074 38.424 199.682 39.096C199.29 39.7587 198.753 40.258 198.072 40.594C197.39 40.93 196.63 41.098 195.79 41.098C194.95 41.098 194.203 40.93 193.55 40.594C192.906 40.258 192.402 39.7587 192.038 39.096C191.674 38.4333 191.492 37.626 191.492 36.674V31.088H194.586ZM210.594 41L208.732 37.444H208.718V41H205.61V31.088H210.23C211.033 31.088 211.719 31.2327 212.288 31.522C212.857 31.802 213.282 32.1893 213.562 32.684C213.851 33.1693 213.996 33.72 213.996 34.336C213.996 34.9987 213.809 35.5867 213.436 36.1C213.072 36.6133 212.545 36.982 211.854 37.206L214.01 41H210.594ZM208.718 35.372H209.95C210.249 35.372 210.473 35.3067 210.622 35.176C210.771 35.036 210.846 34.8213 210.846 34.532C210.846 34.2707 210.767 34.0653 210.608 33.916C210.459 33.7667 210.239 33.692 209.95 33.692H208.718V35.372ZM228.971 31.088L225.639 41H221.621L218.289 31.088H221.593L223.637 37.906L225.667 31.088H228.971ZM236.775 33.566V34.784H239.855V37.122H236.775V38.522H240.275V41H233.667V31.088H240.275V33.566H236.775ZM254.966 31.088L251.41 37.99V41H248.302V37.99L244.746 31.088H248.302L249.884 34.602L251.466 31.088H254.966ZM277.966 31.088V41H274.872V36.058L273.346 41H270.686L269.16 36.058V41H266.052V31.088H269.86L272.044 37.038L274.172 31.088H277.966ZM289.724 39.502H286.42L285.93 41H282.668L286.294 31.088H289.878L293.49 41H290.214L289.724 39.502ZM288.968 37.164L288.072 34.406L287.176 37.164H288.968ZM305.98 31.088V33.552H303.348V41H300.24V33.552H297.636V31.088H305.98ZM313.931 33.566V34.784H317.011V37.122H313.931V38.522H317.431V41H310.823V31.088H317.431V33.566H313.931Z" fill="white"/>
</svg>
